<svg width="173" height="165" viewBox="0 0 173 165" fill="none" xmlns="http://www.w3.org/2000/svg">
<g clip-path="url(#clip0_188_3395)">
<path opacity="0.03" d="M27.2012 165C9.08256 165 -4.06577 147.652 1.15424 130.398C4.1062 120.641 9.97079 111.12 21.1235 105.346C51.6432 89.5439 48.9547 93.8768 63.3406 67.3232C77.7266 40.7697 116.717 34.4705 137.147 53.1749C166.044 79.6302 146.606 100.706 164.893 118.89C165.083 119.08 165.271 119.27 165.457 119.462C181.979 136.522 169.546 165 145.728 165H27.2012Z" fill="#02031A"/>
<path d="M104.544 71.3563V57.2029H36.5261V71.3561C36.5269 78.757 38.968 85.9534 43.4753 91.8426C47.9827 97.7317 54.3076 101.989 61.4808 103.961C62.5337 104.255 63.4611 104.883 64.1217 105.75C64.7822 106.616 65.1398 107.674 65.1398 108.762C65.1398 109.849 64.7822 110.907 64.1217 111.774C63.4611 112.64 62.5337 113.268 61.4808 113.562C54.3074 115.535 47.9823 119.792 43.4749 125.681C38.9675 131.571 36.5265 138.767 36.5261 146.168V160.322H104.544V146.168C104.544 138.767 102.103 131.571 97.5952 125.682C93.0878 119.793 86.7629 115.536 79.5898 113.563C78.5368 113.27 77.6092 112.642 76.9485 111.775C76.2878 110.908 75.9302 109.85 75.9302 108.763C75.9302 107.675 76.2878 106.617 76.9485 105.751C77.6092 104.884 78.5368 104.256 79.5898 103.962C86.763 101.99 93.0879 97.7328 97.5953 91.8437C102.103 85.9545 104.544 78.758 104.544 71.3572" fill="#7577CD"/>
<path opacity="0.8" d="M104.544 71.3563V57.2029H36.5261V71.3561C36.5269 78.757 38.968 85.9534 43.4753 91.8426C47.9827 97.7317 54.3076 101.989 61.4808 103.961C62.5337 104.255 63.4611 104.883 64.1217 105.75C64.7822 106.616 65.1398 107.674 65.1398 108.762C65.1398 109.849 64.7822 110.907 64.1217 111.774C63.4611 112.64 62.5337 113.268 61.4808 113.562C54.3074 115.535 47.9823 119.792 43.4749 125.681C38.9675 131.571 36.5265 138.767 36.5261 146.168V160.322H104.544V146.168C104.544 138.767 102.103 131.571 97.5952 125.682C93.0878 119.793 86.7629 115.536 79.5898 113.563C78.5368 113.27 77.6092 112.642 76.9485 111.775C76.2878 110.908 75.9302 109.85 75.9302 108.763C75.9302 107.675 76.2878 106.617 76.9485 105.751C77.6092 104.884 78.5368 104.256 79.5898 103.962C86.763 101.99 93.0879 97.7328 97.5953 91.8437C102.103 85.9545 104.544 78.758 104.544 71.3572" fill="white"/>
<path d="M104.759 160.535H36.3113V146.168C36.323 138.723 38.7838 131.486 43.3181 125.562C47.8525 119.638 54.2114 115.351 61.4245 113.357C62.4322 113.075 63.3198 112.474 63.952 111.645C64.5842 110.815 64.9263 109.803 64.9263 108.762C64.9263 107.721 64.5842 106.709 63.952 105.879C63.3198 105.05 62.4322 104.449 61.4245 104.167C54.2114 102.173 47.8526 97.8863 43.3183 91.962C38.784 86.0377 36.3232 78.8009 36.3113 71.3559V56.989H104.759V71.3561C104.748 78.801 102.287 86.0377 97.7527 91.9619C93.2185 97.8862 86.8599 102.173 79.647 104.167C78.6393 104.449 77.7517 105.05 77.1195 105.879C76.4873 106.709 76.1451 107.721 76.1451 108.762C76.1451 109.803 76.4873 110.815 77.1195 111.645C77.7517 112.474 78.6393 113.075 79.647 113.357C86.8599 115.352 93.2185 119.638 97.7527 125.562C102.287 131.487 104.748 138.723 104.759 146.168V160.535ZM36.7419 160.108H104.33V146.168C104.318 138.817 101.888 131.671 97.411 125.821C92.9339 119.971 86.6551 115.739 79.5329 113.769C78.4344 113.463 77.4667 112.808 76.7774 111.904C76.0881 111 75.715 109.897 75.715 108.762C75.715 107.628 76.0881 106.524 76.7774 105.62C77.4667 104.716 78.4344 104.062 79.5329 103.755C86.6551 101.786 92.9339 97.553 97.4111 91.7031C101.888 85.8533 104.318 78.7075 104.33 71.3561V57.4163H36.741V71.3559C36.7527 78.7074 39.1826 85.8533 43.6599 91.7032C48.1373 97.5531 54.4162 101.786 61.5386 103.755C62.6369 104.062 63.6045 104.717 64.2937 105.621C64.9829 106.525 65.3559 107.628 65.3559 108.762C65.3559 109.896 64.9829 111 64.2937 111.904C63.6045 112.808 62.6369 113.463 61.5386 113.769C54.4161 115.738 48.1372 119.971 43.6598 125.821C39.1825 131.671 36.7526 138.817 36.741 146.168L36.7419 160.108Z" fill="#9393BB"/>
<path d="M108.496 54.6264C108.496 55.2997 108.231 55.9463 107.758 56.4277C107.285 56.909 106.64 57.1868 105.963 57.2015C105.944 57.2028 105.925 57.2028 105.905 57.2028H35.2809C35.2609 57.2028 35.2424 57.2028 35.2226 57.2015C34.5408 57.1864 33.8924 56.9044 33.4183 56.4168C32.9442 55.9293 32.6826 55.2754 32.6902 54.5973C32.6979 53.9191 32.9742 53.2712 33.4592 52.7944C33.9443 52.3176 34.5988 52.0502 35.2809 52.0503H105.904C106.245 52.0502 106.582 52.1167 106.896 52.2461C107.21 52.3755 107.496 52.5653 107.737 52.8045C107.977 53.0437 108.168 53.3278 108.299 53.6404C108.429 53.953 108.496 54.288 108.496 54.6264Z" fill="#9393BB"/>
<path d="M71.7371 136.58V105.989C71.7109 104.827 72.0691 103.689 72.7566 102.749C73.4441 101.809 74.4229 101.119 75.5427 100.786C87.5779 97.4922 98.7744 86.7563 99.3247 74.4243C99.3539 73.7631 98.7697 73.3274 98.1041 73.3274H42.9659C42.2999 73.3274 41.7161 73.7631 41.7453 74.4243C42.2956 86.7563 53.4921 97.4922 65.5273 100.786C67.2305 101.254 69.3337 103.33 69.3337 106.066V136.582C69.3337 138.782 68.5003 140.651 66.9357 142.207C65.6437 143.492 46.1886 160.321 46.1886 160.321H94.882C94.882 160.321 75.2471 143.3 74.1659 142.224C72.6011 140.669 71.7371 138.78 71.7371 136.58Z" fill="white"/>
<path d="M108.514 162.225C108.515 162.898 108.25 163.544 107.776 164.026C107.303 164.507 106.659 164.785 105.982 164.799C105.962 164.801 105.943 164.801 105.924 164.801H35.2993C35.2795 164.801 35.2611 164.801 35.2413 164.799C34.5595 164.784 33.9111 164.502 33.437 164.015C32.9629 163.527 32.7013 162.873 32.7089 162.195C32.7165 161.517 32.9928 160.869 33.4778 160.392C33.9628 159.916 34.6173 159.648 35.2993 159.648H105.924C106.611 159.648 107.27 159.92 107.755 160.403C108.241 160.886 108.514 161.541 108.514 162.225Z" fill="#9393BB"/>
<path d="M126.045 164.645C142.721 164.645 156.239 151.202 156.239 134.62C156.239 118.037 142.721 104.594 126.045 104.594C109.37 104.594 95.8519 118.037 95.8519 134.62C95.8519 151.202 109.37 164.645 126.045 164.645Z" fill="white"/>
<path d="M134.853 163.498C118.84 168.327 101.862 159.302 97.0048 143.378C92.1481 127.454 101.224 110.57 117.238 105.742C133.251 100.913 150.23 109.937 155.086 125.861C159.941 141.784 150.866 158.669 134.853 163.498ZM117.326 106.032C101.475 110.813 92.4904 127.527 97.2981 143.29C102.106 159.053 118.913 167.987 134.764 163.207C150.616 158.426 159.6 141.712 154.793 125.949C149.985 110.186 133.178 101.251 117.326 106.032Z" fill="#9393BB"/>
<path opacity="0.45" d="M126.046 161.054C140.727 161.054 152.628 149.219 152.628 134.62C152.628 120.02 140.727 108.185 126.046 108.185C111.364 108.185 99.4626 120.02 99.4626 134.62C99.4626 149.219 111.364 161.054 126.046 161.054Z" fill="#7577CD"/>
<path d="M126.045 136.209C126.928 136.209 127.644 135.497 127.644 134.619C127.644 133.742 126.928 133.03 126.045 133.03C125.163 133.03 124.447 133.742 124.447 134.619C124.447 135.497 125.163 136.209 126.045 136.209Z" fill="#9393BB"/>
<path d="M145.75 145.219C145.73 145.224 145.71 145.226 145.69 145.224C145.67 145.222 145.651 145.216 145.633 145.207L125.973 134.754C125.949 134.741 125.928 134.721 125.914 134.698C125.9 134.674 125.892 134.647 125.892 134.62L125.886 119.207C125.886 119.167 125.902 119.128 125.93 119.1C125.959 119.071 125.998 119.055 126.039 119.055C126.079 119.055 126.118 119.071 126.147 119.1C126.176 119.128 126.192 119.167 126.192 119.207L126.199 134.528L145.777 144.939C145.804 144.953 145.826 144.975 145.84 145.001C145.854 145.028 145.861 145.058 145.858 145.088C145.855 145.118 145.843 145.146 145.824 145.17C145.804 145.193 145.779 145.21 145.75 145.219Z" fill="#9393BB"/>
<path d="M45.9928 91.5195C45.9928 91.5195 45.3654 94.754 42.32 94.9343C39.2746 95.1146 39.9351 97.5273 39.9351 97.5273H51.5732V91.7449L45.9928 91.5195Z" fill="#7577CD"/>
<path d="M52.6328 81.7901C52.6328 81.7901 53.5056 84.9679 50.8529 86.4663C48.2002 87.9647 49.8646 89.84 49.8646 89.84L60.3067 84.7313L57.7402 79.543L52.6328 81.7901Z" fill="#7577CD"/>
<path d="M51.5281 83.8911L43.6595 54.367C43.0622 51.1055 43.9603 49.6917 45.3457 48.3182C47.7783 45.9053 57.8582 40.7698 57.8582 40.7698L69.951 40.7371C73.1575 40.7371 76.3108 43.8813 76.3108 47.0698C76.3108 50.2583 73.051 52.9624 69.8435 52.9624L54.9521 54.4412L58.9886 81.4744L51.5281 83.8911Z" fill="#02031A"/>
<path d="M58.9886 81.4733L57.3995 70.8308L49.3488 75.7145L51.5281 83.8911L58.9886 81.4733Z" fill="#02031A"/>
<path d="M60.8137 46.7444C60.8137 46.7444 55.7301 47.871 50.6955 52.8776C47.643 55.9131 47.8933 61.4063 48.3512 71.9713L53.3516 64.6267L58.8361 54.7903L60.8137 46.7444Z" fill="#02031A"/>
<path d="M78.4147 40.7335L70.2024 40.6951L70.1992 40.8019H67.7124C67.7124 40.8019 61.4836 46.502 56.4683 50.0939C52.8205 52.7063 50.5952 55.197 50.4026 57.9116C49.9332 64.5289 44.639 92.7514 44.639 92.7514L52.6067 93.9511L59.5984 60.2232C59.5984 60.2232 70.532 55.2111 73.0609 53.4667C75.4422 51.8243 77.1243 51.1893 77.9122 49.3969C79.2733 46.3018 78.4147 40.7335 78.4147 40.7335Z" fill="#02031A"/>
<path d="M69.2013 42.7909L55.8785 42.9663L63.352 47.4051L69.5715 44.2117C69.7215 44.1317 69.8402 44.004 69.9084 43.8489C69.9767 43.6938 69.9906 43.5205 69.9479 43.3566C69.9052 43.1928 69.8084 43.0479 69.673 42.9453C69.5376 42.8427 69.3715 42.7883 69.2013 42.7909Z" fill="#9393BB"/>
<path opacity="0.2" d="M69.2013 42.7909L55.8785 42.9663L63.352 47.4051L69.5715 44.2117C69.7215 44.1317 69.8402 44.004 69.9084 43.8489C69.9767 43.6938 69.9906 43.5205 69.9479 43.3566C69.9052 43.1928 69.8084 43.0479 69.673 42.9453C69.5376 42.8427 69.3715 42.7883 69.2013 42.7909Z" fill="white"/>
<path d="M55.9548 19.0227L52.1868 31.1647L44.639 40.9919L49.0482 46.0249L58.0278 36.0584C58.4416 35.7332 58.7652 35.3085 58.968 34.8243L59.1081 34.4878L64.2942 22.0086L55.9548 19.0227Z" fill="#7577CD"/>
<path d="M61.7598 6.13383C61.7598 6.13383 60.2414 4.99415 59.8652 2.3708C59.5739 0.339515 61.458 1.65546 61.458 1.65546C61.458 1.65546 61.2627 0.191019 62.3352 0.33631C63.4078 0.4816 64.0092 2.02018 64.0092 2.02018" fill="#02031A"/>
<path d="M67.8818 0.50769C67.8818 0.50769 73.2061 1.07539 71.2813 8.24975L70.8102 8.28116L69.8538 8.34526" fill="#02031A"/>
<path d="M62.6515 15.7425C62.6749 15.7395 62.9347 20.0258 67.942 19.6525C71.4085 19.3942 72.6444 15.7369 72.7239 15.7369C72.35 15.6579 71.8883 15.538 71.7046 15.4968C71.3046 15.4045 70.9423 15.1932 70.6659 14.8911C70.3896 14.589 70.2123 14.2104 70.1576 13.8056C70.0562 13.1982 70.2283 10.09 70.1752 9.47534L64.8542 10.6563C64.9286 11.9545 65.449 14.9641 63.625 15.4968C63.3216 15.5846 62.9948 15.6656 62.6515 15.7425Z" fill="#E98862"/>
<path opacity="0.52" d="M64.7802 14.2664C64.8635 13.9992 64.9171 13.7238 64.9402 13.445C64.9988 12.809 64.9871 12.1684 64.9054 11.5349C65.987 11.3895 67.0058 10.9454 67.8462 10.2529C67.945 10.6162 68.4884 12.2013 68.338 12.5462C68.0531 13.1989 66.7169 14.2664 64.7802 14.2664Z" fill="#02031A"/>
<path d="M65.8778 13.4179C67.9772 13.2308 70.4896 11.9118 70.5259 9.07823L70.5585 6.52133C70.5948 3.68774 69.1276 1.37207 66.4446 1.33767C63.7617 1.30327 61.7267 3.57557 61.6906 6.4098L61.676 7.54221C61.6782 7.931 61.7069 8.31919 61.762 8.70411C61.8997 9.72221 62.1128 11.2706 62.8079 12.3178C63.4634 13.3055 64.5367 13.5376 65.8778 13.4179Z" fill="#E98862"/>
<path opacity="0.52" d="M64.9038 10.8279C64.4707 10.8475 64.0389 10.7654 63.6435 10.5884C63.6277 10.5809 63.6154 10.5677 63.6092 10.5515C63.6031 10.5352 63.6034 10.5172 63.6103 10.5012C63.6171 10.4852 63.63 10.4725 63.646 10.4657C63.6621 10.4589 63.6802 10.4585 63.6966 10.4647C64.5487 10.826 65.3224 10.773 65.9339 10.3117C65.9462 10.302 65.9591 10.2929 65.9724 10.2846C65.9879 10.2757 66.0064 10.2733 66.0238 10.278C66.0411 10.2826 66.0559 10.294 66.0648 10.3095C66.0738 10.325 66.0762 10.3434 66.0715 10.3606C66.0668 10.3779 66.0554 10.3926 66.0398 10.4015C66.0349 10.4044 66.0269 10.4106 66.0158 10.419C65.6943 10.6624 65.3072 10.8048 64.9038 10.8279Z" fill="#02031A"/>
<path opacity="0.52" d="M64.9241 11.4664C64.8458 11.4711 64.7673 11.4692 64.6894 11.4608C64.6716 11.4589 64.6552 11.4501 64.6439 11.4362C64.6326 11.4223 64.6273 11.4045 64.6292 11.3868C64.631 11.369 64.6399 11.3527 64.6539 11.3415C64.6679 11.3302 64.6857 11.325 64.7036 11.3268C64.8263 11.3493 64.9524 11.3454 65.0735 11.3156C65.1946 11.2857 65.3079 11.2305 65.4058 11.1536C65.4184 11.1409 65.4357 11.1338 65.4536 11.1338C65.4716 11.1338 65.4888 11.1408 65.5015 11.1534C65.5142 11.1661 65.5213 11.1832 65.5214 11.201C65.5214 11.2189 65.5143 11.236 65.5016 11.2486C65.3402 11.3854 65.1361 11.4623 64.9241 11.4664Z" fill="#02031A"/>
<path d="M62.5765 8.08594C62.7591 8.08594 62.907 7.93881 62.907 7.75732C62.907 7.57584 62.7591 7.42871 62.5765 7.42871C62.394 7.42871 62.2461 7.57584 62.2461 7.75732C62.2461 7.93881 62.394 8.08594 62.5765 8.08594Z" fill="#02031A"/>
<path d="M65.8054 7.88452C65.9879 7.88452 66.1359 7.7374 66.1359 7.55591C66.1359 7.37442 65.9879 7.22729 65.8054 7.22729C65.6229 7.22729 65.475 7.37442 65.475 7.55591C65.475 7.7374 65.6229 7.88452 65.8054 7.88452Z" fill="#02031A"/>
<path d="M70.3482 9.93932C71.1636 9.94979 71.8357 9.09066 71.846 8.27981C71.8563 7.46896 71.2015 7.01364 70.385 7.00317L69.9583 7.54224L69.6467 9.93163L70.3482 9.93932Z" fill="#E98862"/>
<path d="M69.5371 8.63666C69.5371 8.63666 69.2616 4.62707 68.0391 4.37943C67.2247 4.21448 65.2502 5.36228 63.4211 5.01615C62.6209 4.86445 61.8612 5.06144 61.7841 5.43727C61.7533 5.58684 61.2549 3.44744 62.5079 1.82424C63.5055 0.532012 66.7705 0.167077 68.2558 0.590983C72.3687 1.7642 70.5538 7.17905 70.5538 7.17905L70.3705 8.56145L69.5371 8.63666Z" fill="#02031A"/>
<g opacity="0.52">
<path d="M64.4109 9.88167H64.4058C64.143 9.87911 63.7025 9.84556 63.7045 9.65006C63.7062 9.4881 64.1696 7.74419 64.2225 7.54591C64.2284 7.53043 64.2398 7.51765 64.2546 7.51008C64.2694 7.50251 64.2865 7.50067 64.3025 7.50494C64.3186 7.5092 64.3325 7.51925 64.3416 7.53314C64.3506 7.54704 64.3541 7.56377 64.3514 7.5801C64.1454 8.35249 63.8388 9.54131 63.8375 9.65134C64.0164 9.72912 64.2117 9.76249 64.4064 9.74856C64.4241 9.74805 64.4413 9.75456 64.4542 9.76666C64.4671 9.77876 64.4747 9.79546 64.4752 9.81309C64.4757 9.83071 64.4691 9.84781 64.457 9.86064C64.4448 9.87346 64.428 9.88095 64.4103 9.88146L64.4109 9.88167Z" fill="#02031A"/>
</g>
<path d="M63.5145 5.97546C63.2384 5.89995 62.9469 5.89995 62.6708 5.97546C62.5351 6.01175 62.4057 6.06807 62.2868 6.14254C62.1695 6.2156 62.0618 6.30304 61.9663 6.40278C61.9486 6.42056 61.9385 6.44444 61.9381 6.46944C61.9377 6.49443 61.947 6.51862 61.9641 6.53694C61.9812 6.55527 62.0048 6.56632 62.0299 6.5678C62.055 6.56927 62.0797 6.56106 62.0988 6.54487L62.1046 6.53974C62.1929 6.45838 62.291 6.38838 62.3968 6.33142C62.5008 6.27489 62.6127 6.23427 62.7288 6.21091C62.9574 6.16339 63.1945 6.17658 63.4164 6.24916L63.4258 6.25236C63.4624 6.26523 63.5027 6.2631 63.5377 6.24645C63.5727 6.2298 63.5997 6.2 63.6126 6.16359C63.6256 6.12718 63.6234 6.08715 63.6067 6.05231C63.5899 6.01747 63.56 5.99067 63.5234 5.97781L63.5145 5.97546Z" fill="#02031A"/>
<path d="M65.4699 6.14045C65.68 6.03903 65.9134 5.9948 66.1463 6.01225C66.2646 6.01984 66.381 6.04527 66.4916 6.08767C66.604 6.13007 66.7106 6.18634 66.8089 6.25518L66.8154 6.25924C66.8365 6.27292 66.862 6.27794 66.8868 6.27324C66.9115 6.26855 66.9334 6.25452 66.948 6.23408C66.9625 6.21365 66.9685 6.18841 66.9648 6.16366C66.961 6.13891 66.9477 6.11657 66.9277 6.10135C66.8198 6.01498 66.7014 5.94254 66.5752 5.88576C66.4474 5.8277 66.3116 5.78902 66.1723 5.77102C65.8885 5.73264 65.5996 5.77117 65.3361 5.88256C65.3005 5.89791 65.2724 5.92671 65.2582 5.96261C65.2439 5.99852 65.2446 6.03858 65.26 6.074C65.2754 6.10941 65.3044 6.13728 65.3405 6.15147C65.3766 6.16565 65.4169 6.16499 65.4525 6.14963L65.4607 6.14579L65.4699 6.14045Z" fill="#02031A"/>
<path d="M65.3363 1.84259C65.5219 0.959178 65.1831 0.141378 64.5795 0.015983C63.976 -0.109412 63.3362 0.505081 63.1506 1.38849C62.965 2.2719 63.3038 3.08969 63.9074 3.21509C64.5109 3.34048 65.1507 2.72599 65.3363 1.84259Z" fill="#02031A"/>
<path d="M56.4304 25.1621C56.5881 27.0045 57.7065 38.5002 57.858 40.7697H78.4056C78.5238 38.7228 79.0539 29.772 79.5014 25.7691C79.9288 21.9494 80.528 20.2111 80.0358 19.0242C79.1675 16.9303 76.4046 15.9957 74.533 15.7438C73.3904 15.59 71.6717 15.4797 71.6717 15.4797C71.6717 15.4797 71.5262 18.4069 68.0565 18.5697C63.3332 18.7915 63.6486 15.4797 63.6252 15.4797C62.8601 15.4797 58.6948 16.0329 57.6534 16.7081C57.0597 17.0671 56.5701 17.5737 56.233 18.178C55.8959 18.7823 55.7227 19.4634 55.7306 20.1545C55.7109 21.5289 56.2512 23.0722 56.4304 25.1621Z" fill="#7577CD"/>
<path d="M57.4724 36.24C57.4577 36.2399 57.4437 36.2345 57.4329 36.2246C57.4221 36.2148 57.4154 36.2013 57.4141 36.1868L56.6357 27.3328C56.6349 27.3251 56.6356 27.3174 56.6378 27.31C56.6401 27.3026 56.6438 27.2957 56.6487 27.2897C56.6536 27.2837 56.6597 27.2788 56.6666 27.2752C56.6735 27.2716 56.681 27.2694 56.6888 27.2687C56.6966 27.2678 56.7044 27.2684 56.7119 27.2706C56.7195 27.2728 56.7264 27.2765 56.7325 27.2814C56.7385 27.2864 56.7435 27.2925 56.747 27.2995C56.7506 27.3064 56.7527 27.314 56.7532 27.3217L57.5319 36.1757C57.5326 36.1833 57.5317 36.191 57.5294 36.1983C57.5271 36.2056 57.5234 36.2123 57.5184 36.2182C57.5135 36.2241 57.5074 36.2289 57.5006 36.2324C57.4937 36.2359 57.4863 36.2381 57.4786 36.2387L57.4724 36.24Z" fill="#02031A"/>
<path d="M58.9622 41.383L61.7835 39.1066L61.3089 39.2402C61.1547 39.2802 60.9911 39.2605 60.8509 39.1852C60.7108 39.1098 60.6046 38.9844 60.5539 38.8342C60.5304 38.7558 60.5233 38.6734 60.533 38.5922C60.5426 38.511 60.5688 38.4325 60.6099 38.3617C60.651 38.2908 60.7062 38.229 60.7721 38.1801C60.838 38.1311 60.9133 38.0961 60.9933 38.077L66.9204 36.6433L67.4302 38.521C67.5884 39.104 67.568 39.7208 67.3714 40.2922C67.1749 40.8636 66.8113 41.3637 66.3271 41.7283L64.1308 43.3762C64.0184 43.4641 63.8789 43.5106 63.736 43.5079C63.593 43.5052 63.4554 43.4535 63.3464 43.3615C63.2498 43.2763 63.183 43.1627 63.156 43.0371C63.1289 42.9116 63.1429 42.7807 63.196 42.6637C63.1891 42.6618 63.1827 42.6585 63.1772 42.654C63.1716 42.6496 63.167 42.644 63.1637 42.6377C63.1604 42.6314 63.1584 42.6246 63.1579 42.6175C63.1573 42.6104 63.1582 42.6033 63.1605 42.5966L62.756 42.9015C62.631 42.9997 62.4731 43.047 62.3144 43.0338C62.1556 43.0207 62.0078 42.9481 61.9008 42.8308C61.8088 42.7226 61.7582 42.5857 61.7577 42.444C61.7573 42.3024 61.8071 42.1651 61.8985 42.0564C61.8921 42.0554 61.886 42.0533 61.8804 42.0503L61.7141 42.1755C61.6017 42.2632 61.4621 42.3097 61.3192 42.307C61.1763 42.3043 61.0387 42.2525 60.9297 42.1605C60.8123 42.0572 60.7397 41.9127 60.7272 41.7573C60.7146 41.602 60.7631 41.4478 60.8624 41.3272C60.8602 41.3237 60.8582 41.3201 60.8566 41.3163L59.6818 42.2641C59.6235 42.3111 59.5565 42.3463 59.4846 42.3675C59.4128 42.3888 59.3374 42.3957 59.2628 42.388C59.1882 42.3803 59.1158 42.3581 59.0499 42.3225C58.9839 42.287 58.9257 42.2389 58.8784 42.181C58.8311 42.1231 58.7958 42.0565 58.7744 41.985C58.753 41.9135 58.746 41.8385 58.7538 41.7644C58.7616 41.6902 58.7839 41.6182 58.8197 41.5527C58.8554 41.4871 58.9037 41.4291 58.962 41.3821L58.9622 41.383Z" fill="#E98862"/>
<path opacity="0.2" d="M60.9285 41.3504C60.9348 41.3482 60.9406 41.3449 60.9457 41.3406L62.0761 40.4069C62.0873 40.3972 62.0942 40.3835 62.0954 40.3688C62.0966 40.3541 62.0919 40.3395 62.0825 40.3281C62.073 40.3168 62.0594 40.3095 62.0447 40.3079C62.0299 40.3064 62.0151 40.3106 62.0035 40.3197L60.8729 41.2536C60.8626 41.2621 60.8557 41.274 60.8533 41.2871C60.8509 41.3002 60.8533 41.3137 60.8599 41.3252C60.8666 41.3367 60.8771 41.3456 60.8896 41.3502C60.9022 41.3548 60.9159 41.3549 60.9285 41.3504Z" fill="#02031A"/>
<path opacity="0.2" d="M61.9249 42.0561C61.931 42.0538 61.9366 42.0507 61.9417 42.0467L62.8359 41.3202C62.8469 41.3105 62.8536 41.297 62.8547 41.2825C62.8559 41.2679 62.8513 41.2535 62.842 41.2422C62.8328 41.2309 62.8195 41.2237 62.8049 41.2219C62.7904 41.2201 62.7757 41.2239 62.764 41.2326L61.8697 41.9591C61.8594 41.9676 61.8525 41.9794 61.8501 41.9924C61.8476 42.0055 61.8499 42.019 61.8565 42.0306C61.8631 42.0421 61.8736 42.051 61.8861 42.0557C61.8986 42.0604 61.9123 42.0605 61.9249 42.0561Z" fill="#02031A"/>
<path opacity="0.2" d="M63.2331 42.6655C63.2397 42.6631 63.2457 42.6597 63.251 42.6552L63.6652 42.3018C63.6709 42.297 63.6755 42.2911 63.6788 42.2844C63.6822 42.2778 63.6842 42.2706 63.6848 42.2632C63.6853 42.2558 63.6844 42.2484 63.682 42.2414C63.6797 42.2343 63.676 42.2278 63.6711 42.2222C63.6663 42.2166 63.6603 42.212 63.6537 42.2087C63.647 42.2053 63.6398 42.2033 63.6323 42.2028C63.6249 42.2022 63.6174 42.2032 63.6104 42.2055C63.6033 42.2078 63.5967 42.2115 63.5911 42.2163L63.1768 42.5695C63.1668 42.5782 63.1602 42.59 63.158 42.603C63.1558 42.616 63.1583 42.6294 63.165 42.6408C63.1716 42.6522 63.1821 42.6609 63.1945 42.6654C63.207 42.67 63.2206 42.6699 63.2331 42.6655Z" fill="#02031A"/>
<path d="M83.8981 35.8077L83.8766 35.712L80.1267 19.2173L72.7069 20.8851L75.6342 33.7613L63.9073 36.6261L65.3503 43.2069L80.9771 40.2425C81.0128 40.2355 81.063 40.225 81.0998 40.2171C81.5747 40.1104 82.0238 39.9117 82.4215 39.6323C82.8192 39.3529 83.1577 38.9984 83.4175 38.5889C83.6774 38.1794 83.8536 37.7231 83.936 37.2459C84.0185 36.7687 84.0056 36.28 83.8981 35.8077Z" fill="#7577CD"/>
<path d="M63.85 36.6379C63.8469 36.6232 63.8496 36.6079 63.8576 36.5951C63.8657 36.5824 63.8783 36.5732 63.893 36.5695L75.567 33.7186L73.6687 25.3815C73.6652 25.3665 73.668 25.3507 73.6763 25.3377C73.6845 25.3246 73.6977 25.3154 73.7128 25.312C73.728 25.3086 73.7438 25.3113 73.7569 25.3195C73.7701 25.3278 73.7793 25.3408 73.7828 25.3559L75.6937 33.7485C75.6972 33.7634 75.6946 33.779 75.6865 33.792C75.6785 33.805 75.6656 33.8143 75.6507 33.818L63.9759 36.6691C63.9759 36.6691 64.0541 37.0084 64.0763 37.1223C64.0774 37.1369 64.0729 37.1514 64.0635 37.1627C64.0542 37.1741 64.0408 37.1813 64.0262 37.1831C64.0115 37.1848 63.9968 37.1808 63.9851 37.1719C63.9733 37.1631 63.9655 37.15 63.9632 37.1355C63.9364 37.0107 63.85 36.6379 63.85 36.6379Z" fill="#02031A"/>
<path d="M64.3074 45.8262L59.7988 32.045C59.7196 31.8028 59.5653 31.5917 59.3581 31.442C59.1509 31.2924 58.9014 31.2117 58.6452 31.2117H40.2773C40.0859 31.2116 39.8971 31.2567 39.7265 31.3431C39.5559 31.4296 39.4083 31.5549 39.2957 31.709C39.1832 31.8631 39.109 32.0414 39.0791 32.2295C39.0492 32.4176 39.0645 32.61 39.1238 32.7911L43.6324 46.5723C43.7115 46.8145 43.8658 47.0256 44.073 47.1753C44.2802 47.325 44.5298 47.4056 44.7859 47.4056H63.1541C63.3455 47.4055 63.5342 47.3604 63.7048 47.274C63.8753 47.1875 64.0229 47.0621 64.1354 46.9081C64.2479 46.754 64.3221 46.5757 64.352 46.3877C64.3819 46.1996 64.3666 46.0072 64.3074 45.8262Z" fill="#9393BB"/>
<path opacity="0.2" d="M64.3074 45.8262L59.7988 32.045C59.7196 31.8028 59.5653 31.5917 59.3581 31.442C59.1509 31.2924 58.9014 31.2117 58.6452 31.2117H40.2773C40.0859 31.2116 39.8971 31.2567 39.7265 31.3431C39.5559 31.4296 39.4083 31.5549 39.2957 31.709C39.1832 31.8631 39.109 32.0414 39.0791 32.2295C39.0492 32.4176 39.0645 32.61 39.1238 32.7911L43.6324 46.5723C43.7115 46.8145 43.8658 47.0256 44.073 47.1753C44.2802 47.325 44.5298 47.4056 44.7859 47.4056H63.1541C63.3455 47.4055 63.5342 47.3604 63.7048 47.274C63.8753 47.1875 64.0229 47.0621 64.1354 46.9081C64.2479 46.754 64.3221 46.5757 64.352 46.3877C64.3819 46.1996 64.3666 46.0072 64.3074 45.8262Z" fill="white"/>
<path d="M51.1866 41.2242C52.2505 41.2242 53.113 40.3665 53.113 39.3085C53.113 38.2505 52.2505 37.3928 51.1866 37.3928C50.1226 37.3928 49.2601 38.2505 49.2601 39.3085C49.2601 40.3665 50.1226 41.2242 51.1866 41.2242Z" fill="white"/>
</g>
<defs>
<clipPath id="clip0_188_3395">
<rect width="173" height="165" fill="white"/>
</clipPath>
</defs>
</svg>
