<svg width="40" height="40" viewBox="0 0 40 40" fill="none" xmlns="http://www.w3.org/2000/svg">
<rect width="40" height="40" rx="2" fill="#EAEAFF"/>
<path fill-rule="evenodd" clip-rule="evenodd" d="M18.2335 11.4077C18.0081 11.6331 17.8236 12.0173 17.8236 12.2615C17.8236 12.5911 17.0749 12.7056 14.9202 12.7056C12.5872 12.7056 12.0168 12.8046 12.0168 13.21C12.0168 13.6325 13.0022 13.7295 18.0798 13.8077C23.2001 13.8866 24.1428 13.9806 24.1428 14.4133C24.1428 14.8474 23.0262 14.9516 16.8269 15.0964C11.461 15.2218 9.47372 15.3792 9.37124 15.688C9.2633 16.0121 11.1423 16.13 17.5411 16.2003C24.6589 16.2789 25.8507 16.3653 25.8507 16.8042C25.8507 17.2397 24.6743 17.3421 17.9944 17.4873C8.24369 17.6994 7.53286 18.267 16.7125 18.5119C22.1026 18.6557 23.1181 18.764 23.1181 19.195C23.1181 19.6326 22.0021 19.7207 15.4917 19.7993C9.63938 19.87 7.89767 19.9892 8.00458 20.3116C8.10057 20.6009 9.28004 20.7621 11.7883 20.829C13.7926 20.8823 15.4309 20.9592 15.4285 20.9998C15.4264 21.0405 15.1976 21.9189 14.9202 22.9521C14.1626 25.774 14.2155 26.0261 15.5641 26.0261C16.4262 26.0261 16.8655 25.8048 17.2904 25.1558C19.1701 22.2871 23.972 22.3086 23.972 25.1855C23.972 26.1409 24.3228 26.2057 26.512 25.6545C29.1804 24.9826 31.3877 22.5262 31.9438 19.61C32.0613 18.9928 31.9885 17.6994 31.7816 16.7355C31.3136 14.5534 28.9915 12.0556 26.8358 11.4152C24.9848 10.8656 18.7811 10.8601 18.2335 11.4077ZM18.822 24.9751C17.5746 26.2225 17.4223 28.1782 18.5269 28.7691C19.5599 29.3221 21.1007 28.8514 22.0841 27.6826C24.4024 24.9277 21.3791 22.4183 18.822 24.9751ZM21.4683 25.8837C21.7419 26.5961 20.4432 27.8947 19.7306 27.6211C19.0919 27.3762 19.0188 26.3338 19.5998 25.7528C20.1808 25.1719 21.2233 25.245 21.4683 25.8837Z" fill="#7577CD"/>
</svg>
