<svg width="40" height="40" viewBox="0 0 40 40" fill="none" xmlns="http://www.w3.org/2000/svg">
<rect width="40" height="40" rx="2" fill="#F0F0F1"/>
<path d="M11.4132 28.2863C11.4132 29.1701 11.659 29.8434 12.1505 30.306C12.6421 30.7687 13.3248 31 14.1987 31H19.022V21.9058H11.4132V28.2863ZM20.9575 31H25.8013C26.6752 31 27.3545 30.7687 27.8392 30.306C28.3308 29.8434 28.5765 29.1701 28.5765 28.2863V21.9058H20.9575V31ZM10 18.9746C10 19.5546 10.157 19.9793 10.4711 20.2486C10.7851 20.511 11.2255 20.6422 11.7921 20.6422H19.022V14.8211H17.4859C16.7008 14.8211 16.0898 14.6139 15.6528 14.1996C15.2227 13.7853 15.0077 13.295 15.0077 12.7288C15.0077 12.1764 15.1818 11.7448 15.53 11.4341C15.8781 11.1164 16.3287 10.9576 16.8817 10.9576C17.4757 10.9576 17.9809 11.1786 18.3973 11.6205C18.8138 12.0556 19.022 12.639 19.022 13.371V14.8211H20.9575V13.371C20.9575 12.639 21.1691 12.0556 21.5924 11.6205C22.0157 11.1786 22.5209 10.9576 23.108 10.9576C23.661 10.9576 24.1116 11.1164 24.4598 11.4341C24.808 11.7448 24.9821 12.1764 24.9821 12.7288C24.9821 13.295 24.7636 13.7853 24.3267 14.1996C23.8966 14.6139 23.289 14.8211 22.5038 14.8211H20.9575V20.6422H28.2079C28.7745 20.6422 29.2149 20.511 29.5289 20.2486C29.843 19.9793 30 19.5546 30 18.9746V16.6648C30 16.0295 29.8293 15.5634 29.488 15.2665C29.1466 14.9696 28.6619 14.8211 28.0338 14.8211H25.9959C26.2963 14.5311 26.5284 14.1927 26.6923 13.806C26.8561 13.4193 26.938 12.9981 26.938 12.5424C26.938 11.8519 26.7742 11.2407 26.4465 10.709C26.1188 10.1773 25.6784 9.75957 25.1254 9.45574C24.5793 9.15191 23.9648 9 23.2821 9C22.5311 9 21.8587 9.20716 21.2647 9.62147C20.6708 10.0358 20.2475 10.6193 19.9949 11.3719C19.7423 10.6193 19.319 10.0358 18.725 9.62147C18.1379 9.20716 17.4654 9 16.7076 9C16.0249 9 15.4071 9.15191 14.8541 9.45574C14.3079 9.75957 13.871 10.1773 13.5433 10.709C13.2156 11.2407 13.0517 11.8519 13.0517 12.5424C13.0517 12.9981 13.1336 13.4193 13.2975 13.806C13.4682 14.1927 13.7037 14.5311 14.0041 14.8211H11.9662C11.3586 14.8211 10.8773 14.9696 10.5223 15.2665C10.1741 15.5634 10 16.0295 10 16.6648V18.9746Z" fill="#02031A"/>
</svg>
