<svg width="40" height="40" viewBox="0 0 40 40" fill="none" xmlns="http://www.w3.org/2000/svg">
<rect width="40" height="40" rx="2" fill="#F0F0F1"/>
<path d="M10 30.0142C10 30.281 10.0958 30.512 10.2873 30.7072C10.4854 30.9024 10.7198 31 10.9906 31C11.268 31 11.5024 30.9024 11.6939 30.7072C11.892 30.512 11.9911 30.281 11.9911 30.0142V9.97604C11.9911 9.70926 11.892 9.48151 11.6939 9.29281C11.5024 9.0976 11.268 9 10.9906 9C10.7198 9 10.4854 9.0976 10.2873 9.29281C10.0958 9.48151 10 9.70926 10 9.97604V30.0142ZM18.1526 30.4144L21.1639 26.8811C21.3224 26.7119 21.4248 26.5818 21.471 26.4907C21.5239 26.3996 21.58 26.2629 21.6394 26.0807L21.8177 25.5146L20.1535 23.465L19.6979 25.622L16.7261 29.087C16.4818 29.3733 16.3761 29.6466 16.4091 29.9068C16.4487 30.1671 16.5676 30.3786 16.7657 30.5413C16.9704 30.7039 17.2016 30.782 17.4591 30.7755C17.7233 30.7755 17.9544 30.6551 18.1526 30.4144ZM25.4433 30.1216C25.6018 30.4404 25.8164 30.6389 26.0872 30.7169C26.3579 30.795 26.6188 30.7788 26.8697 30.6681C27.1207 30.5575 27.2957 30.3753 27.3947 30.1216C27.5004 29.8678 27.4674 29.5685 27.2957 29.2236L25.2551 25.1437C25.1758 24.9876 25.0834 24.8314 24.9777 24.6752C24.8787 24.5126 24.7796 24.3629 24.6805 24.2263L23.3928 22.4303L23.4819 22.1766C23.6536 21.6625 23.7791 21.2168 23.8583 20.8394C23.9376 20.462 23.9937 20.0195 24.0267 19.512L24.2348 16.6522C24.2876 15.9689 24.1192 15.3963 23.7296 14.9343C23.3399 14.4723 22.7918 14.2413 22.0852 14.2413C21.5503 14.2413 21.0748 14.3682 20.6587 14.622C20.2493 14.8758 19.8002 15.2402 19.3115 15.7152L17.7761 17.1988C17.5186 17.446 17.3403 17.6835 17.2412 17.9113C17.1421 18.139 17.0794 18.4156 17.053 18.7409L16.8648 21.0834C16.845 21.3827 16.911 21.6332 17.0629 21.835C17.2214 22.0302 17.4459 22.131 17.7365 22.1375C18.0271 22.1636 18.2582 22.0952 18.4299 21.9326C18.6016 21.7634 18.7007 21.5161 18.7271 21.1908L18.945 18.6433L19.6582 18.0186C19.7771 17.9145 19.9026 17.8885 20.0347 17.9405C20.1667 17.9861 20.2262 18.0739 20.213 18.2041L20.0545 20.3221C20.0149 20.8687 20.0644 21.3177 20.2031 21.669C20.3484 22.0204 20.6158 22.4336 21.0054 22.9086L23.0263 25.417C23.1319 25.5407 23.198 25.6383 23.2244 25.7098C23.2574 25.7749 23.297 25.8465 23.3432 25.9246L25.4433 30.1216ZM28.95 18.0967H26.6617L25.2551 16.5643L25.0768 19.0337L25.5721 19.512C25.7306 19.6747 25.899 19.7885 26.0773 19.8536C26.2556 19.9122 26.4966 19.9414 26.8004 19.9414H28.95C29.267 19.9414 29.5212 19.8601 29.7127 19.6974C29.9042 19.5282 30 19.3005 30 19.0142C30 18.7409 29.9009 18.5197 29.7028 18.3505C29.5113 18.1813 29.2604 18.0967 28.95 18.0967ZM23.2145 13.402C23.6239 13.402 23.9937 13.3043 24.3239 13.1091C24.6607 12.9074 24.9282 12.6406 25.1263 12.3088C25.331 11.9769 25.4334 11.6093 25.4334 11.2059C25.4334 10.8024 25.331 10.4348 25.1263 10.1029C24.9282 9.77107 24.6607 9.50754 24.3239 9.31233C23.9937 9.11713 23.6239 9.01952 23.2145 9.01952C22.805 9.01952 22.4319 9.11713 22.0951 9.31233C21.7583 9.50754 21.4875 9.77107 21.2828 10.1029C21.0847 10.4348 20.9856 10.8024 20.9856 11.2059C20.9856 11.6093 21.0847 11.9769 21.2828 12.3088C21.4875 12.6406 21.7583 12.9074 22.0951 13.1091C22.4319 13.3043 22.805 13.402 23.2145 13.402Z" fill="black"/>
</svg>
