<svg width="40" height="40" viewBox="0 0 40 40" fill="none" xmlns="http://www.w3.org/2000/svg">
<rect width="40" height="40" rx="2" fill="#D5FFD5"/>
<path d="M19.9943 32C21.6451 32 23.1936 31.6856 24.6398 31.0568C26.0861 30.4356 27.3583 29.572 28.4562 28.4659C29.5618 27.3674 30.4288 26.0947 31.0573 24.6477C31.6858 23.2008 32 21.6515 32 20C32 18.3561 31.6858 16.8106 31.0573 15.3636C30.4288 13.9167 29.5618 12.6402 28.4562 11.5341C27.3583 10.428 26.0823 9.56439 24.6285 8.94318C23.1822 8.31439 21.6375 8 19.9943 8C18.3512 8 16.8027 8.31439 15.3488 8.94318C13.9025 9.56439 12.6266 10.428 11.5211 11.5341C10.4231 12.6402 9.55987 13.9167 8.93138 15.3636C8.31046 16.8106 8 18.3561 8 20C8 21.6515 8.31046 23.2008 8.93138 24.6477C9.55987 26.0947 10.4269 27.3674 11.5324 28.4659C12.638 29.572 13.9139 30.4356 15.3602 31.0568C16.8064 31.6856 18.3512 32 19.9943 32ZM12.7932 14.8636C13.3157 14.0909 13.9479 13.428 14.69 12.875C15.4397 12.3144 16.2612 11.8826 17.1548 11.5795C18.0483 11.2765 18.9872 11.125 19.9716 11.125C20.956 11.125 21.8949 11.2765 22.7885 11.5795C23.6895 11.8826 24.5111 12.3144 25.2532 12.875C26.0028 13.428 26.6427 14.0871 27.1727 14.8523C27.3848 15.1402 27.4491 15.4091 27.3658 15.6591C27.2901 15.9091 27.0857 16.0341 26.7525 16.0341H13.2134C12.8878 16.0341 12.6834 15.9091 12.6001 15.6591C12.5168 15.4091 12.5812 15.1439 12.7932 14.8636ZM19.983 22.7273C19.3545 22.7273 18.8206 22.5076 18.3814 22.0682C17.9423 21.6212 17.7227 21.0833 17.7227 20.4545C17.7227 19.8333 17.9423 19.303 18.3814 18.8636C18.8206 18.4242 19.3545 18.2045 19.983 18.2045C20.6115 18.2045 21.1453 18.4242 21.5845 18.8636C22.0237 19.303 22.2433 19.8333 22.2433 20.4545C22.2433 21.0833 22.0237 21.6212 21.5845 22.0682C21.1453 22.5076 20.6115 22.7273 19.983 22.7273ZM11.5211 22.4545C11.4378 22.1591 11.4605 21.947 11.5892 21.8182C11.7179 21.6818 11.911 21.6326 12.1685 21.6705C12.8954 21.7689 13.5693 21.9924 14.1903 22.3409C14.8112 22.6894 15.3526 23.1326 15.8145 23.6705C16.2764 24.2008 16.6323 24.803 16.8822 25.4773C17.132 26.1439 17.2494 26.8523 17.2343 27.6023C17.2343 27.8523 17.151 28.0341 16.9844 28.1477C16.8254 28.2614 16.6247 28.2576 16.3824 28.1364C15.5797 27.7652 14.8528 27.2955 14.2016 26.7273C13.5504 26.1591 12.9976 25.5152 12.5433 24.7955C12.089 24.0682 11.7482 23.2879 11.5211 22.4545ZM28.4562 22.4545C28.2291 23.2879 27.8845 24.0682 27.4226 24.7955C26.9683 25.5152 26.4155 26.1591 25.7643 26.7273C25.1207 27.2955 24.3938 27.7652 23.5835 28.1364C23.3412 28.2576 23.1406 28.2614 22.9815 28.1477C22.8225 28.0341 22.7392 27.8523 22.7317 27.6023C22.7241 26.8523 22.8452 26.1439 23.0951 25.4773C23.345 24.803 23.6971 24.2008 24.1514 23.6705C24.6133 23.1326 25.1548 22.6894 25.7757 22.3409C26.3966 21.9924 27.0743 21.7689 27.8088 21.6705C28.0663 21.6326 28.2556 21.6818 28.3767 21.8182C28.5054 21.947 28.5319 22.1591 28.4562 22.4545Z" fill="#06DD02"/>
</svg>
