<svg width="40" height="40" viewBox="0 0 40 40" fill="none" xmlns="http://www.w3.org/2000/svg">
<rect width="40" height="40" rx="2" fill="#FFECDD"/>
<path d="M12.2299 25.6913C11.9324 25.6913 11.6923 25.5977 11.5097 25.4104C11.3271 25.2231 11.2358 24.9838 11.2358 24.6925V22.7676C11.2358 22.4694 11.3271 22.2301 11.5097 22.0497C11.6923 21.8624 11.9324 21.7688 12.2299 21.7688H14.7151C15.0127 21.7688 15.2527 21.8624 15.4353 22.0497C15.6179 22.2301 15.7092 22.4694 15.7092 22.7676V24.6925C15.7092 24.9838 15.6179 25.2231 15.4353 25.4104C15.2527 25.5977 15.0127 25.6913 14.7151 25.6913H12.2299ZM8 17.7526V15.3179H32V17.7526H8ZM11.3271 29H28.6729C29.7684 29 30.5968 28.7156 31.1581 28.1468C31.7194 27.578 32 26.7387 32 25.6289V14.3815C32 13.2717 31.7194 12.4324 31.1581 11.8636C30.5968 11.2879 29.7684 11 28.6729 11H11.3271C10.2316 11 9.40321 11.2844 8.84193 11.8532C8.28064 12.422 8 13.2647 8 14.3815V25.6289C8 26.7387 8.28064 27.578 8.84193 28.1468C9.40321 28.7156 10.2316 29 11.3271 29Z" fill="#FF6D02"/>
</svg>
