<svg width="16" height="16" viewBox="0 0 16 16" fill="none" xmlns="http://www.w3.org/2000/svg">
<path d="M1.06413 15.543C1.19082 15.543 1.3175 15.5195 1.44418 15.4727C1.57086 15.4258 1.71275 15.3581 1.86983 15.2695L5.54109 13.2305L9.54679 15.5352C9.86603 15.7174 10.1979 15.8086 10.5425 15.8086C10.877 15.8086 11.1886 15.7227 11.4774 15.5508L15.2247 13.3789C15.4933 13.2227 15.6884 13.0352 15.81 12.8164C15.9367 12.5924 16 12.3268 16 12.0195V1.53516C16 1.20182 15.9063 0.938802 15.7188 0.746094C15.5313 0.553385 15.2728 0.457031 14.9435 0.457031C14.8117 0.457031 14.6825 0.480469 14.5558 0.527344C14.4291 0.574219 14.2847 0.641927 14.1226 0.730469L10.3221 2.90234L6.362 0.449219C6.06809 0.277344 5.75392 0.191406 5.41948 0.191406C5.08504 0.191406 4.77846 0.27474 4.49976 0.441406L0.775297 2.60547C0.50673 2.76172 0.309105 2.94922 0.182423 3.16797C0.0608076 3.38672 0 3.64974 0 3.95703V14.457C0 14.8008 0.0937451 15.0664 0.281235 15.2539C0.468725 15.4466 0.729691 15.543 1.06413 15.543ZM4.819 11.8086L1.74822 13.543C1.68741 13.5742 1.63927 13.5898 1.6038 13.5898C1.51259 13.5898 1.46698 13.5273 1.46698 13.4023V4.37891C1.46698 4.26432 1.48725 4.17057 1.52779 4.09766C1.56833 4.01953 1.64181 3.95182 1.74822 3.89453L4.57577 2.20703C4.61631 2.1862 4.65685 2.16536 4.69739 2.14453C4.73793 2.11849 4.77846 2.09245 4.819 2.06641V11.8086ZM6.30879 11.832V2.26172C6.34933 2.28255 6.38733 2.30599 6.4228 2.33203C6.46334 2.35286 6.50388 2.3763 6.54442 2.40234L9.69121 4.33984V13.7773C9.64054 13.7461 9.58987 13.7174 9.53919 13.6914C9.48852 13.6654 9.43785 13.6393 9.38717 13.6133L6.30879 11.832ZM11.1886 13.8867V4.19141L14.2518 2.47266C14.3025 2.44141 14.343 2.42578 14.3734 2.42578C14.4241 2.42578 14.4621 2.44141 14.4874 2.47266C14.5178 2.50391 14.533 2.54818 14.533 2.60547V11.582C14.533 11.6966 14.5127 11.793 14.4722 11.8711C14.4317 11.944 14.3582 12.0117 14.2518 12.0742L11.5306 13.6914C11.4749 13.7279 11.4166 13.7617 11.3558 13.793C11.3001 13.8242 11.2443 13.8555 11.1886 13.8867Z" fill="#7577CD"/>
</svg>
