<svg width="26" height="20" viewBox="0 0 26 20" fill="none" xmlns="http://www.w3.org/2000/svg">
<path d="M5.12537 5.90252C4.84002 5.90252 4.58759 5.79896 4.36809 5.59186C4.1559 5.37761 4.04981 5.13123 4.04981 4.85271C4.04981 4.5599 4.1559 4.31352 4.36809 4.11355C4.58759 3.90645 4.84002 3.80289 5.12537 3.80289C5.43267 3.80289 5.68876 3.90287 5.89363 4.10284C6.10581 4.3028 6.2119 4.55276 6.2119 4.85271C6.2119 5.13837 6.10581 5.38475 5.89363 5.59186C5.68876 5.79896 5.43267 5.90252 5.12537 5.90252ZM5.12537 9.28763C4.84002 9.28763 4.58759 9.18407 4.36809 8.97697C4.1559 8.76986 4.04981 8.52348 4.04981 8.23781C4.04981 7.95215 4.1559 7.70577 4.36809 7.49866C4.58759 7.28441 4.84002 7.17729 5.12537 7.17729C5.43267 7.17729 5.68876 7.28084 5.89363 7.48795C6.10581 7.69505 6.2119 7.94501 6.2119 8.23781C6.2119 8.53062 6.10581 8.78057 5.89363 8.98768C5.68876 9.18764 5.43267 9.28763 5.12537 9.28763ZM8.51667 5.58115C8.30449 5.58115 8.12157 5.50973 7.96792 5.3669C7.82158 5.22407 7.74842 5.05267 7.74842 4.85271C7.74842 4.63846 7.82158 4.45992 7.96792 4.31709C8.12157 4.17425 8.30449 4.10284 8.51667 4.10284H21.2258C21.438 4.10284 21.6173 4.17425 21.7636 4.31709C21.9173 4.45992 21.9941 4.63846 21.9941 4.85271C21.9941 5.05267 21.9209 5.22407 21.7746 5.3669C21.6283 5.50973 21.4453 5.58115 21.2258 5.58115H8.51667ZM8.51667 8.97697C8.30449 8.97697 8.12157 8.90198 7.96792 8.75201C7.82158 8.60204 7.74842 8.43064 7.74842 8.23781C7.74842 8.03071 7.82158 7.85574 7.96792 7.71291C8.12157 7.56294 8.30449 7.48795 8.51667 7.48795H15.5956C15.8005 7.48795 15.9761 7.56294 16.1224 7.71291C16.2761 7.85574 16.3529 8.03071 16.3529 8.23781C16.3529 8.43064 16.2761 8.60204 16.1224 8.75201C15.9761 8.90198 15.8005 8.97697 15.5956 8.97697H8.51667ZM3.59983 20H22.3892C23.5818 20 24.4818 19.7072 25.0891 19.1216C25.6964 18.536 26 17.6718 26 16.5292V3.48152C26 2.33887 25.6964 1.47474 25.0891 0.889127C24.4818 0.296376 23.5818 0 22.3892 0H3.59983C2.41452 0 1.51822 0.296376 0.910933 0.889127C0.303644 1.47474 0 2.33887 0 3.48152V16.5292C0 17.6718 0.303644 18.536 0.910933 19.1216C1.51822 19.7072 2.41452 20 3.59983 20Z" fill="#9393BB"/>
</svg>
