<svg width="20" height="20" viewBox="0 0 20 20" fill="none" xmlns="http://www.w3.org/2000/svg">
<path d="M9.99516 20C11.3627 20 12.6496 19.7386 13.8558 19.2159C15.0621 18.6996 16.1264 17.98 17.0489 17.0571C17.9713 16.1342 18.6938 15.0694 19.2163 13.8625C19.7388 12.6557 20 11.3682 20 10C20 8.63182 19.7388 7.3443 19.2163 6.13746C18.6938 4.93062 17.9713 3.86899 17.0489 2.95257C16.1264 2.02969 15.0621 1.30687 13.8558 0.784124C12.6496 0.261375 11.3595 0 9.98549 0C8.61796 0 7.33108 0.261375 6.12482 0.784124C4.92501 1.30687 3.86389 2.02969 2.94146 2.95257C2.02548 3.86899 1.30624 4.93062 0.783745 6.13746C0.261248 7.3443 0 8.63182 0 10C0 11.3682 0.261248 12.6557 0.783745 13.8625C1.30624 15.0694 2.02548 16.1342 2.94146 17.0571C3.86389 17.98 4.92824 18.6996 6.13449 19.2159C7.34075 19.7386 8.62764 20 9.99516 20ZM10.0048 18.3543C9.27592 18.3543 8.55023 18.2575 7.82777 18.0639C7.10531 17.8703 6.41832 17.5895 5.76681 17.2217C5.12175 16.8538 4.55733 16.4085 4.07354 15.8858C4.44122 15.3308 4.92179 14.8596 5.51524 14.4724C6.10869 14.0787 6.786 13.7786 7.54717 13.5721C8.30834 13.3656 9.12756 13.2623 10.0048 13.2623C10.8628 13.2623 11.6691 13.3656 12.4238 13.5721C13.185 13.7722 13.8655 14.0691 14.4654 14.4627C15.0718 14.85 15.5588 15.3243 15.9265 15.8858C15.4362 16.4085 14.8686 16.8538 14.2235 17.2217C13.5785 17.5895 12.8915 17.8703 12.1626 18.0639C11.4401 18.2575 10.7209 18.3543 10.0048 18.3543ZM10.0048 11.5876C9.36623 11.5812 8.79213 11.4166 8.28253 11.0939C7.77939 10.7712 7.37945 10.3324 7.08273 9.77735C6.786 9.22233 6.63764 8.59632 6.63764 7.89932C6.63119 7.24104 6.77633 6.63762 7.07305 6.08906C7.37623 5.5405 7.78262 5.10165 8.29221 4.77251C8.80181 4.43691 9.37268 4.26912 10.0048 4.26912C10.6241 4.26912 11.1885 4.43691 11.6981 4.77251C12.2077 5.10165 12.6109 5.5405 12.9076 6.08906C13.2108 6.63762 13.3624 7.24104 13.3624 7.89932C13.3624 8.59632 13.214 9.22556 12.9173 9.78703C12.6205 10.342 12.2174 10.7841 11.7078 11.1133C11.1982 11.4359 10.6305 11.5941 10.0048 11.5876Z" fill="#9393BB"/>
</svg>
