<svg width="27" height="20" viewBox="0 0 27 20" fill="none" xmlns="http://www.w3.org/2000/svg">
<path fill-rule="evenodd" clip-rule="evenodd" d="M11.5127 0.452952C11.2591 0.703424 11.0516 1.13036 11.0516 1.40171C11.0516 1.76793 10.2092 1.89506 7.78521 1.89506C5.16061 1.89506 4.51887 2.00512 4.51887 2.45559C4.51887 2.92503 5.6275 3.03281 11.3398 3.11972C17.1001 3.20738 18.1607 3.31174 18.1607 3.79257C18.1607 4.27492 16.9045 4.39067 9.93025 4.55158C3.89365 4.69086 1.65793 4.86581 1.54265 5.20888C1.42122 5.56902 3.53512 5.69995 10.7338 5.77813C18.7413 5.86542 20.0821 5.96143 20.0821 6.44909C20.0821 6.93296 18.7586 7.04681 11.2437 7.20809C0.274151 7.44377 -0.525528 8.0745 9.80151 8.3466C15.8654 8.50637 17.0078 8.62667 17.0078 9.10561C17.0078 9.59175 15.7524 9.68966 8.42811 9.77695C1.8443 9.8555 -0.115121 9.98795 0.00515722 10.3462C0.113139 10.6676 1.44004 10.8468 4.26179 10.9211C6.51672 10.9803 8.35971 11.0657 8.35702 11.1109C8.35471 11.1561 8.09725 12.1321 7.78521 13.2801C6.93289 16.4156 6.99245 16.6957 8.50958 16.6957C9.47949 16.6957 9.97367 16.4497 10.4517 15.7287C12.5664 12.5412 17.9685 12.5652 17.9685 15.7617C17.9685 16.8232 18.3632 16.8953 20.826 16.2828C23.828 15.5363 26.3112 12.8069 26.9368 9.5667C27.069 8.88094 26.9871 7.44377 26.7542 6.37281C26.2278 3.94817 23.6155 1.17287 21.1903 0.461301C19.1079 -0.149318 12.1287 -0.15539 11.5127 0.452952ZM12.1748 15.5279C10.7714 16.9139 10.6 19.0869 11.8428 19.7434C13.0048 20.3579 14.7383 19.8349 15.8446 18.5362C18.4527 15.4752 15.0515 12.687 12.1748 15.5279ZM15.1518 16.5374C15.4596 17.329 13.9986 18.7719 13.197 18.4679C12.4784 18.1958 12.3961 17.0376 13.0498 16.3921C13.7035 15.7465 14.8763 15.8277 15.1518 16.5374Z" fill="#080957"/>
</svg>
