<svg width="199" height="62" viewBox="0 0 199 62" fill="none" xmlns="http://www.w3.org/2000/svg">
<path d="M116.011 49.8817V35.1287H120.499V48.2979L117.801 46.0395H124.312V49.8817H116.011ZM109.881 41.9333V38.0617H116.011V41.9333H109.881ZM101.258 57.1556C99.5181 57.1556 97.9636 56.833 96.5948 56.1877C95.2261 55.562 94.1507 54.6919 93.3685 53.5773C92.5864 52.4628 92.1953 51.1918 92.1953 49.7644C92.1953 49.3733 92.2246 48.8649 92.2833 48.2392C92.342 47.594 92.4202 46.8803 92.5179 46.0981C92.6157 45.316 92.7233 44.5143 92.8406 43.6931C92.9774 42.8523 93.1045 42.0408 93.2219 41.2587L97.6507 41.8453C97.4552 43.1554 97.2792 44.3481 97.1228 45.4235C96.9859 46.4794 96.8784 47.3789 96.8001 48.1219C96.7219 48.8454 96.6828 49.3831 96.6828 49.7351C96.6828 50.4586 96.8588 51.0843 97.2108 51.6122C97.5627 52.1597 98.0809 52.5801 98.7653 52.8734C99.4496 53.1667 100.281 53.3134 101.258 53.3134C102.295 53.3134 103.116 53.1569 103.722 52.8441C104.328 52.5508 104.758 52.1499 105.013 51.6415C105.267 51.1527 105.394 50.5954 105.394 49.9697V35.1287H109.881V49.9697C109.881 51.4167 109.51 52.6779 108.767 53.7533C108.024 54.8287 106.997 55.6598 105.687 56.2464C104.397 56.8525 102.92 57.1556 101.258 57.1556ZM98.8239 33.7208V30.1132H103.341V33.7208H98.8239ZM124.312 49.8817V46.0395C124.429 46.0395 124.517 46.0884 124.576 46.1861C124.654 46.2643 124.713 46.3914 124.752 46.5674C124.81 46.7238 124.85 46.9194 124.869 47.154C124.889 47.3887 124.898 47.6526 124.898 47.9459C124.898 48.2392 124.889 48.513 124.869 48.7672C124.85 49.0018 124.81 49.2071 124.752 49.3831C124.713 49.5395 124.654 49.6666 124.576 49.7644C124.517 49.8426 124.429 49.8817 124.312 49.8817ZM112.697 33.6622V30.0839H117.214V33.6622H112.697ZM116.715 33.6622V30.0839H121.232V33.6622H116.715Z" fill="#06DD02"/>
<path d="M124.305 49.8817V46.0395H130.083L127.355 48.2979V35.1287H131.843V49.8817H124.305ZM124.305 49.8817C124.207 49.8817 124.119 49.8426 124.041 49.7644C123.963 49.6666 123.904 49.5395 123.865 49.3831C123.826 49.2071 123.797 49.0018 123.777 48.7672C123.738 48.513 123.718 48.2392 123.718 47.9459C123.718 47.5549 123.738 47.2225 123.777 46.9487C123.816 46.6554 123.885 46.4305 123.982 46.2741C124.061 46.1177 124.168 46.0395 124.305 46.0395V49.8817ZM127.355 56.4517V52.8734H131.872V56.4517H127.355Z" fill="#06DD02"/>
<path d="M140.968 49.8817V46.0395H162V49.8817H140.968ZM136.51 49.8817V29.2626H140.968V49.8817H136.51ZM162 49.8817V46.0395C162.117 46.0395 162.205 46.0884 162.264 46.1861C162.342 46.2643 162.4 46.3914 162.44 46.5674C162.498 46.7238 162.537 46.9194 162.557 47.154C162.576 47.3887 162.586 47.6526 162.586 47.9459C162.586 48.2392 162.576 48.513 162.557 48.7672C162.537 49.0018 162.498 49.2071 162.44 49.3831C162.4 49.5395 162.342 49.6666 162.264 49.7644C162.205 49.8426 162.117 49.8817 162 49.8817Z" fill="#06DD02"/>
<path d="M161.987 49.8817V46.0395H176.711L175.303 47.1834V43.6344C175.303 42.6372 175.196 41.8453 174.981 41.2587C174.785 40.6721 174.492 40.2517 174.101 39.9975C173.71 39.7433 173.211 39.6162 172.605 39.6162H166.152L163.483 35.7739L165.038 32.8116C165.194 32.5183 165.37 32.1957 165.566 31.8437C165.781 31.4722 166.055 31.0225 166.387 30.4945C166.739 29.947 167.179 29.2626 167.707 28.4414L171.49 30.5532C171.002 31.2571 170.61 31.8535 170.317 32.3423C170.024 32.8311 169.77 33.2515 169.555 33.6035C169.359 33.9555 169.173 34.3074 168.997 34.6594L167.941 36.6538L167.355 35.7739H172.605C173.876 35.7739 174.961 35.9792 175.861 36.3899C176.76 36.8005 177.493 37.3773 178.06 38.1203C178.647 38.8438 179.077 39.6748 179.351 40.6134C179.625 41.552 179.761 42.559 179.761 43.6344V49.8817H161.987ZM161.987 49.8817C161.89 49.8817 161.802 49.8426 161.723 49.7644C161.645 49.6666 161.587 49.5395 161.547 49.3831C161.508 49.2071 161.479 49.0018 161.459 48.7672C161.42 48.513 161.401 48.2392 161.401 47.9459C161.401 47.5549 161.42 47.2225 161.459 46.9487C161.499 46.6554 161.567 46.4305 161.665 46.2741C161.743 46.1177 161.851 46.0395 161.987 46.0395V49.8817Z" fill="#06DD02"/>
<path d="M33.4668 4.2981C33.4668 3.46607 34.0951 2.15693 34.8632 1.3889C36.7286 -0.476478 57.8633 -0.457859 64.1693 1.4145C71.5133 3.5964 79.424 12.1064 81.0182 19.5411C81.7234 22.825 81.9713 27.2319 81.571 29.3347C79.6765 39.2702 72.1568 47.6394 63.0661 49.9283C55.6081 51.8065 54.413 51.5854 54.413 48.3306C54.413 38.5289 38.054 38.4556 31.6503 48.2293C30.2026 50.4403 28.7061 51.1944 25.769 51.1944C21.1748 51.1944 20.9944 50.3356 23.5755 40.7213C24.5204 37.2012 25.3001 34.2082 25.307 34.0697C25.3152 33.9312 19.7342 33.6694 12.9057 33.4879C4.3608 33.2598 0.342611 32.7105 0.0156173 31.7249C-0.348615 30.6264 5.58499 30.2202 25.5223 29.9794C47.7021 29.7117 51.5038 29.4115 51.5038 27.9208C51.5038 26.4522 48.0442 26.0834 29.6813 25.5934C-1.59142 24.7591 0.830194 22.825 34.0486 22.1024C56.8055 21.6078 60.8132 21.2587 60.8132 19.775C60.8132 18.2797 56.7532 17.9853 32.5044 17.7177C10.7052 17.4779 4.30378 17.0765 4.6715 15.9721C5.02061 14.9202 11.7909 14.3837 30.0711 13.9566C51.1908 13.4632 54.9948 13.1083 54.9948 11.6293C54.9948 10.1549 51.7831 9.83489 34.3395 9.56608C17.0414 9.2996 13.6842 8.96911 13.6842 7.52964C13.6842 6.14835 15.6275 5.81088 23.5755 5.81088C30.916 5.81088 33.4668 5.42105 33.4668 4.2981Z" fill="#080957"/>
<path d="M35.8628 60.5399C32.0994 58.5267 32.6184 51.8635 36.8682 47.6138C45.5795 38.9025 55.8792 47.452 47.9813 56.8382C44.6311 60.8204 39.3817 62.4239 35.8628 60.5399Z" fill="#080957"/>
<path d="M39.9634 56.6289C42.3908 57.561 46.8152 53.1367 45.883 50.7093C45.0487 48.5332 41.4971 48.2842 39.5177 50.2636C37.5383 52.243 37.7873 55.7945 39.9634 56.6289Z" fill="white"/>
<path d="M139.94 8.4614C137.85 6.72692 138.195 3.10861 140.612 1.41667C143.196 -0.393427 147.021 -0.479442 149.345 1.21912C151.895 3.08404 150.416 4.83837 147.294 3.65117C145.924 3.13036 144.237 2.92052 143.547 3.18518C141.281 4.05478 142.233 6.35639 145.303 7.42638C151.584 9.61551 153.398 13.4144 149.854 16.9589C146.727 20.0857 136.854 18.9685 138.135 15.6318C138.532 14.5968 139.2 14.5477 141.432 15.3899C143.29 16.0912 144.723 16.1356 145.698 15.5212C148.056 14.0335 147.699 12.8094 144.43 11.1761C142.747 10.3358 140.726 9.1136 139.94 8.4614Z" fill="#080957"/>
<path d="M95.031 3.72584C93.1405 3.72584 92.1953 3.25323 92.1953 2.30801C92.1953 1.16619 93.6661 0.890183 99.7571 0.890183C105.848 0.890183 107.319 1.16619 107.319 2.30801C107.319 3.25323 106.374 3.72584 104.483 3.72584H101.648V11.2876C101.648 18.2189 101.49 18.8494 99.7571 18.8494C98.0245 18.8494 97.8666 18.2189 97.8666 11.2876V3.72584H95.031Z" fill="#080957"/>
<path d="M112.082 7.97934C111.64 6.41972 111.06 4.16159 110.791 2.96116C110.385 1.15012 110.649 0.827799 112.338 1.07072C114.027 1.3127 114.627 2.49044 115.855 7.97934C117.275 14.3274 117.363 14.4635 118.011 11.3387C119.884 2.32786 120.557 0.890183 122.904 0.890183C124.936 0.890183 125.304 1.50647 126.304 6.58419C126.919 9.71665 127.744 12.4767 128.136 12.7196C128.528 12.9616 129.369 10.3991 130.006 7.02466C130.945 2.05186 131.501 0.890183 132.947 0.890183C135.163 0.890183 135.173 0.601891 132.611 10.6193C130.607 18.4533 130.35 18.9146 128.127 18.6537C126.034 18.408 125.598 17.63 124.264 11.7631L122.76 5.14935L121.081 11.9994C119.59 18.0866 119.156 18.8494 117.178 18.8494C115.353 18.8494 114.767 18.1272 113.918 14.8322C113.349 12.6232 112.523 9.53895 112.082 7.97934Z" fill="#080957"/>
<path d="M158.361 18.8494C156.603 18.8494 156.47 18.2189 156.47 9.86978C156.47 1.52065 156.603 0.890183 158.361 0.890183C160.119 0.890183 160.251 1.52065 160.251 9.86978C160.251 18.2189 160.119 18.8494 158.361 18.8494Z" fill="#080957"/>
<path d="M165.923 18.8494V9.86978C165.923 1.52065 166.055 0.890183 167.813 0.890183C169.535 0.890183 169.703 1.52065 169.703 7.97934V15.0685H173.957C177.58 15.0685 178.21 15.3483 178.21 16.9589C178.21 18.6556 177.58 18.8494 172.066 18.8494H165.923Z" fill="#080957"/>
<path d="M182.311 13.0571C183.006 11.3037 184.317 7.84984 185.225 5.37998C186.637 1.53577 187.242 0.890183 189.432 0.890183C191.793 0.890183 192.225 1.53766 195.026 9.27523C196.694 13.886 198.06 17.9268 198.06 18.2548C198.06 19.9345 194.436 18.5271 193.506 16.4863C192.656 14.6205 191.733 14.1233 189.118 14.1233C186.376 14.1233 185.707 14.5288 185.215 16.4863C184.844 17.9646 183.953 18.8494 182.834 18.8494C180.721 18.8494 180.589 17.3956 182.311 13.0571Z" fill="#080957"/>
<path d="M189.271 11.2875C191.389 11.2875 191.578 11.0049 191.007 8.68816C189.993 4.5859 189.022 4.35527 187.917 7.95561C186.935 11.1561 186.988 11.2875 189.271 11.2875Z" fill="white"/>
</svg>
