<svg width="17" height="17" viewBox="0 0 17 17" fill="none" xmlns="http://www.w3.org/2000/svg">
<path d="M8.76562 16.2031C9.83854 16.2031 10.8464 15.9974 11.7891 15.5859C12.737 15.1797 13.5703 14.6172 14.2891 13.8984C15.0078 13.1745 15.5729 12.3411 15.9844 11.3984C16.3958 10.4505 16.6016 9.4401 16.6016 8.36719C16.6016 7.29427 16.3958 6.28646 15.9844 5.34375C15.5729 4.39583 15.0078 3.5625 14.2891 2.84375C13.5703 2.11979 12.737 1.55469 11.7891 1.14844C10.8411 0.736979 9.83073 0.53125 8.75781 0.53125C7.6849 0.53125 6.67448 0.736979 5.72656 1.14844C4.78385 1.55469 3.95312 2.11979 3.23438 2.84375C2.51562 3.5625 1.95052 4.39583 1.53906 5.34375C1.13281 6.28646 0.929688 7.29427 0.929688 8.36719C0.929688 9.4401 1.13281 10.4505 1.53906 11.3984C1.95052 12.3411 2.51562 13.1745 3.23438 13.8984C3.95833 14.6172 4.79167 15.1797 5.73438 15.5859C6.68229 15.9974 7.69271 16.2031 8.76562 16.2031ZM7.07031 5.25781C7.07031 4.94531 7.14583 4.66146 7.29688 4.40625C7.45312 4.15104 7.65885 3.94792 7.91406 3.79688C8.16927 3.64583 8.45312 3.57031 8.76562 3.57031C9.07292 3.57031 9.35417 3.64583 9.60938 3.79688C9.86979 3.94792 10.0755 4.15104 10.2266 4.40625C10.3776 4.66146 10.4531 4.94531 10.4531 5.25781C10.4531 5.65365 10.3333 6 10.0938 6.29688C9.85417 6.59375 9.55208 6.78906 9.1875 6.88281V11.4688C9.1875 11.8177 9.17188 12.1328 9.14062 12.4141C9.10938 12.6901 9.0599 12.9089 8.99219 13.0703C8.92969 13.2266 8.85417 13.3047 8.76562 13.3047C8.67188 13.3047 8.59115 13.224 8.52344 13.0625C8.46094 12.901 8.41146 12.6823 8.375 12.4062C8.34375 12.125 8.32812 11.8125 8.32812 11.4688V6.88281C7.96875 6.78385 7.66927 6.58594 7.42969 6.28906C7.1901 5.99219 7.07031 5.64844 7.07031 5.25781ZM7.77344 4.82031C7.77865 4.96615 7.83594 5.09375 7.94531 5.20312C8.05469 5.3125 8.18229 5.36719 8.32812 5.36719C8.47917 5.36719 8.60677 5.3125 8.71094 5.20312C8.8151 5.09375 8.86979 4.96615 8.875 4.82031C8.875 4.67448 8.82031 4.54688 8.71094 4.4375C8.60677 4.32292 8.47917 4.26562 8.32812 4.26562C8.18229 4.26562 8.05208 4.32292 7.9375 4.4375C7.82812 4.54688 7.77344 4.67448 7.77344 4.82031Z" fill="#64659A"/>
</svg>
